<svg width="400" height="400" viewBox="0 0 400 400" fill="none" xmlns="http://www.w3.org/2000/svg">
<path d="M199.5 141H139.5V201M199.5 141H259.5V201M199.5 141V201M199.5 261H259.5V201M199.5 261H139.5V201M199.5 261V201M199.5 201H259.5M199.5 201H139.5" stroke="white" stroke-width="2"/>
<path d="M29.5 261L69.5 201M29.5 261L29.5 231M29.5 261L49.5 261M29.5 141L69.5 201M29.5 141L29.5 171M29.5 141L49.5 141M109.5 141L69.5 201M109.5 141L109.5 171M109.5 141L89.5 141M109.5 261L69.5 201M109.5 261L109.5 231M109.5 261L89.5 261M29.5 201L69.5 201M29.5 201L69.5 261M29.5 201L69.5 141M29.5 201L29.5 231M29.5 201L29.5 171M109.5 201L69.5 201M109.5 201L69.5 141M109.5 201L69.5 261M109.5 201L109.5 231M109.5 201L109.5 171M69.5 201L69.5 141M69.5 201L69.5 261M69.5 141L89.5 141M69.5 141L49.5 141M69.5 261L89.5 261M69.5 261L49.5 261M29.5 231L109.5 231M29.5 171L109.5 171M89.5 141L89.5 261M49.5 261L49.5 141" stroke="#FBE04C"/>
<path d="M259.5 371L199.5 331M259.5 371L229.5 371M259.5 371L259.5 351M139.5 371L199.5 331M139.5 371L169.5 371M139.5 371L139.5 351M139.5 291L199.5 331M139.5 291L169.5 291M139.5 291L139.5 311M259.5 291L199.5 331M259.5 291L229.5 291M259.5 291L259.5 311M199.5 371L199.5 331M199.5 371L259.5 331M199.5 371L139.5 331M199.5 371L229.5 371M199.5 371L169.5 371M199.5 291L199.5 331M199.5 291L139.5 331M199.5 291L259.5 331M199.5 291L229.5 291M199.5 291L169.5 291M199.5 331L139.5 331M199.5 331L259.5 331M139.5 331L139.5 311M139.5 331L139.5 351M259.5 331L259.5 311M259.5 331L259.5 351M229.5 371L229.5 291M169.5 371L169.5 291M139.5 311L259.5 311M259.5 351L139.5 351" stroke="#FBE04C"/>
<path d="M289.5 261L329.5 201M289.5 261L289.5 231M289.5 261L309.5 261M289.5 141L329.5 201M289.5 141L289.5 171M289.5 141L309.5 141M369.5 141L329.5 201M369.5 141L369.5 171M369.5 141L349.5 141M369.5 261L329.5 201M369.5 261L369.5 231M369.5 261L349.5 261M289.5 201L329.5 201M289.5 201L329.5 261M289.5 201L329.5 141M289.5 201L289.5 231M289.5 201L289.5 171M369.5 201L329.5 201M369.5 201L329.5 141M369.5 201L329.5 261M369.5 201L369.5 231M369.5 201L369.5 171M329.5 201L329.5 141M329.5 201L329.5 261M329.5 141L349.5 141M329.5 141L309.5 141M329.5 261L349.5 261M329.5 261L309.5 261M289.5 231L369.5 231M289.5 171L369.5 171M349.5 141L349.5 261M309.5 261L309.5 141" stroke="#FBE04C"/>
<path d="M259.5 111L199.5 71M259.5 111L229.5 111M259.5 111L259.5 91M139.5 111L199.5 71M139.5 111L169.5 111M139.5 111L139.5 91M139.5 31L199.5 71M139.5 31L169.5 31M139.5 31L139.5 51M259.5 31L199.5 71M259.5 31L229.5 31M259.5 31L259.5 51M199.5 111L199.5 71M199.5 111L259.5 71M199.5 111L139.5 71M199.5 111L229.5 111M199.5 111L169.5 111M199.5 31L199.5 71M199.5 31L139.5 71M199.5 31L259.5 71M199.5 31L229.5 31M199.5 31L169.5 31M199.5 71L139.5 71M199.5 71L259.5 71M139.5 71L139.5 51M139.5 71L139.5 91M259.5 71L259.5 51M259.5 71L259.5 91M229.5 111L229.5 31M169.5 111L169.5 31M139.5 51L259.5 51M259.5 91L139.5 91" stroke="#FBE04C"/>
<path d="M199.5 141H259.5V111H199.5M199.5 141H139.5V111H199.5M199.5 141V111" stroke="white" stroke-width="2"/>
<path d="M259.5 201L259.5 261L289.5 261L289.5 201M259.5 201L259.5 141L289.5 141L289.5 201M259.5 201L289.5 201" stroke="white" stroke-width="2"/>
<path d="M199.5 291H259.5V261H199.5M199.5 291H139.5V261H199.5M199.5 291V261" stroke="white" stroke-width="2"/>
<path d="M109.5 201L109.5 261L139.5 261L139.5 201M109.5 201L109.5 141L139.5 141L139.5 201M109.5 201L139.5 201" stroke="white" stroke-width="2"/>
<path d="M9.5 201L29.5 201M9.5 201L9.5 231M9.5 201L9.5 171M29.5 201L29.5 231M29.5 201L29.5 171M9.5 231L9.5 261L29.5 261L29.5 231M9.5 231L29.5 231M29.5 171L29.5 141L9.50001 141L9.5 171M29.5 171L9.5 171" stroke="#FBE04C"/>
<path d="M199.5 391L199.5 371M199.5 391L229.5 391M199.5 391L169.5 391M199.5 371H229.5M199.5 371L169.5 371M229.5 391L259.5 391V371L229.5 371M229.5 391L229.5 371M169.5 371L139.5 371L139.5 391L169.5 391M169.5 371L169.5 391" stroke="#FBE04C"/>
<path d="M369.5 201L389.5 201M369.5 201L369.5 231M369.5 201L369.5 171M389.5 201L389.5 231M389.5 201L389.5 171M369.5 231L369.5 261L389.5 261L389.5 231M369.5 231L389.5 231M389.5 171L389.5 141L369.5 141L369.5 171M389.5 171L369.5 171" stroke="#FBE04C"/>
<path d="M199.5 31L199.5 11M199.5 31L229.5 31M199.5 31L169.5 31M199.5 11L229.5 11M199.5 11L169.5 11M229.5 31L259.5 31V11L229.5 11M229.5 31L229.5 11M169.5 11L139.5 11L139.5 31L169.5 31M169.5 11L169.5 31" stroke="#FBE04C"/>
<path d="M259.5 111V111C259.5 127.569 272.931 141 289.5 141V141" stroke="white" stroke-width="2"/>
<path d="M259.5 291V291C259.5 274.431 272.931 261 289.5 261V261" stroke="white" stroke-width="2"/>
<path d="M139.5 111V111C139.5 127.569 126.069 141 109.5 141V141" stroke="white" stroke-width="2"/>
<path d="M139.5 291V291C139.5 274.431 126.069 261 109.5 261V261" stroke="white" stroke-width="2"/>
<rect x="139.5" y="291" width="120" height="80" stroke="white" stroke-width="2"/>
<rect x="289.5" y="261" width="120" height="80" transform="rotate(-90 289.5 261)" stroke="white" stroke-width="2"/>
<rect x="139.5" y="31" width="120" height="80" stroke="white" stroke-width="2"/>
<rect x="29.5" y="261" width="120" height="80" transform="rotate(-90 29.5 261)" stroke="white" stroke-width="2"/>
<circle cx="229.5" cy="351" r="5.5" fill="black" stroke="#FBE04C"/>
<circle cx="199.5" cy="331" r="5.5" fill="black" stroke="#FBE04C"/>
<circle cx="49.5" cy="231" r="5.5" transform="rotate(90 49.5 231)" fill="black" stroke="#FBE04C"/>
<circle cx="229.5" cy="91" r="5.5" fill="black" stroke="#FBE04C"/>
<circle cx="199.5" cy="71" r="5.5" fill="black" stroke="#FBE04C"/>
<circle cx="309.5" cy="231" r="5.5" transform="rotate(90 309.5 231)" fill="black" stroke="#FBE04C"/>
<circle cx="229.5" cy="311" r="5.5" fill="black" stroke="#FBE04C"/>
<circle cx="89.5" cy="231" r="5.5" transform="rotate(90 89.5 231)" fill="black" stroke="#FBE04C"/>
<circle cx="229.5" cy="51" r="5.5" fill="black" stroke="#FBE04C"/>
<circle cx="349.5" cy="231" r="5.5" transform="rotate(90 349.5 231)" fill="black" stroke="#FBE04C"/>
<circle cx="329.5" cy="201" r="5.5" transform="rotate(90 329.5 201)" fill="black" stroke="#FBE04C"/>
<circle cx="169.5" cy="351" r="5.5" fill="black" stroke="#FBE04C"/>
<circle cx="49.5" cy="171" r="5.5" transform="rotate(90 49.5 171)" fill="black" stroke="#FBE04C"/>
<circle cx="169.5" cy="91" r="5.5" fill="black" stroke="#FBE04C"/>
<circle cx="309.5" cy="171" r="5.5" transform="rotate(90 309.5 171)" fill="black" stroke="#FBE04C"/>
<circle cx="169.5" cy="311" r="5.5" fill="black" stroke="#FBE04C"/>
<circle cx="89.5" cy="171" r="5.5" transform="rotate(90 89.5 171)" fill="black" stroke="#FBE04C"/>
<circle cx="69.5" cy="201" r="5.5" transform="rotate(90 69.5 201)" fill="black" stroke="#FBE04C"/>
<circle cx="169.5" cy="51" r="5.5" fill="black" stroke="#FBE04C"/>
<circle cx="349.5" cy="171" r="5.5" transform="rotate(90 349.5 171)" fill="black" stroke="#FBE04C"/>
<path d="M176 388V387.5H175.5H172.965C172.722 385.804 171.263 384.5 169.5 384.5C167.737 384.5 166.278 385.804 166.035 387.5H163.5H163V388V394V394.5H163.5H175.5H176V394V388Z" fill="black" stroke="#FBE04C"/>
<path d="M387 224L386.5 224L386.5 224.5L386.5 227.035C384.804 227.278 383.5 228.737 383.5 230.5C383.5 232.263 384.804 233.722 386.5 233.965L386.5 236.5L386.5 237L387 237L393 237L393.5 237L393.5 236.5L393.5 224.5L393.5 224L393 224L387 224Z" fill="black" stroke="#FBE04C"/>
<path d="M176 13V13.5H175.5H172.965C172.722 15.1961 171.263 16.5 169.5 16.5C167.737 16.5 166.278 15.1961 166.035 13.5H163.5H163V13V7V6.5H163.5H175.5H176V7V13Z" fill="black" stroke="#FBE04C"/>
<path d="M12 224L12.5 224L12.5 224.5L12.5 227.035C14.1961 227.278 15.5 228.737 15.5 230.5C15.5 232.263 14.1961 233.722 12.5 233.965L12.5 236.5L12.5 237L12 237L6 237L5.5 237L5.5 236.5L5.5 224.5L5.5 224L6 224L12 224Z" fill="black" stroke="#FBE04C"/>
<path d="M236 388V387.5H235.5H232.965C232.722 385.804 231.263 384.5 229.5 384.5C227.737 384.5 226.278 385.804 226.035 387.5H223.5H223V388V394V394.5H223.5H235.5H236V394V388Z" fill="black" stroke="#FBE04C"/>
<path d="M387 164L386.5 164L386.5 164.5L386.5 167.035C384.804 167.278 383.5 168.737 383.5 170.5C383.5 172.263 384.804 173.722 386.5 173.965L386.5 176.5L386.5 177L387 177L393 177L393.5 177L393.5 176.5L393.5 164.5L393.5 164L393 164L387 164Z" fill="black" stroke="#FBE04C"/>
<path d="M236 13V13.5H235.5H232.965C232.722 15.1961 231.263 16.5 229.5 16.5C227.737 16.5 226.278 15.1961 226.035 13.5H223.5H223V13V7V6.5H223.5H235.5H236V7V13Z" fill="black" stroke="#FBE04C"/>
<path d="M12 164L12.5 164L12.5 164.5L12.5 167.035C14.1961 167.278 15.5 168.737 15.5 170.5C15.5 172.263 14.1961 173.722 12.5 173.965L12.5 176.5L12.5 177L12 177L6 177L5.5 177L5.5 176.5L5.5 164.5L5.5 164L6 164L12 164Z" fill="black" stroke="#FBE04C"/>
</svg>
